<svg width="209" height="60" viewBox="0 0 209 60" fill="none" xmlns="http://www.w3.org/2000/svg">
<rect x="1" y="1" width="207" height="57.96" rx="15" stroke="white" stroke-width="2" stroke-linejoin="round"/>
<path d="M55.4 31.9H57.8C57.9333 32.3133 58.16 32.7 58.48 33.06C59.1867 33.82 60.16 34.2 61.4 34.2C63.4667 34.2 64.5 33.4667 64.5 32C64.5 31.4133 64.24 30.9333 63.72 30.56C63.2133 30.1867 62.44 30 61.4 30H59.6V27.8H61.4C62.28 27.8 62.9467 27.6133 63.4 27.24C63.8667 26.8667 64.1 26.3867 64.1 25.8C64.1 25.2133 63.8667 24.7333 63.4 24.36C62.9467 23.9867 62.28 23.8 61.4 23.8C60.28 23.8 59.4133 24.1333 58.8 24.8C58.52 25.12 58.3267 25.4533 58.22 25.8H55.8C56 25.04 56.3333 24.34 56.8 23.7C57.92 22.3 59.4533 21.6 61.4 21.6C62.9467 21.6 64.18 22 65.1 22.8C66.0333 23.5867 66.5 24.5533 66.5 25.7C66.5 26.62 66.1467 27.3933 65.44 28.02C65.1733 28.2733 64.8267 28.5 64.4 28.7V28.8C64.8533 28.96 65.2667 29.1933 65.64 29.5C66.48 30.2333 66.9 31.1333 66.9 32.2C66.9 33.4267 66.4067 34.4333 65.42 35.22C64.4467 36.0067 63.1067 36.4 61.4 36.4C59.24 36.4 57.5867 35.6533 56.44 34.16C55.92 33.4667 55.5733 32.7133 55.4 31.9ZM67.7023 36L71.0823 24H76.5223L79.9023 36H77.6023L76.8023 33.1H70.8023L70.0023 36H67.7023ZM71.4023 30.9H76.2023L74.9023 26.2H72.7023L71.4023 30.9ZM81.5953 36V24H83.8953V28.8H86.1953L89.4953 24H92.0953L88.0953 29.8L92.3953 36H89.6953L86.2953 31H83.8953V36H81.5953ZM92.8 36L96.18 24H101.62L105 36H102.7L101.9 33.1H95.9L95.1 36H92.8ZM96.5 30.9H101.3L100 26.2H97.8L96.5 30.9ZM105.693 32.2H108.093C108.226 32.5733 108.44 32.9067 108.733 33.2C109.4 33.8667 110.32 34.2 111.493 34.2C112.346 34.2 112.993 34.04 113.433 33.72C113.873 33.4 114.093 32.9933 114.093 32.5C114.093 32.0067 113.873 31.6 113.433 31.28C112.993 30.96 112.346 30.8 111.493 30.8H109.693V28.6H111.493C112.16 28.6 112.673 28.4667 113.033 28.2C113.406 27.92 113.593 27.5867 113.593 27.2C113.593 26.8133 113.406 26.4867 113.033 26.22C112.673 25.94 112.16 25.8 111.493 25.8C110.36 25.8 109.52 26.1 108.973 26.7C108.733 26.9533 108.573 27.2533 108.493 27.6H106.093C106.24 26.8267 106.526 26.16 106.953 25.6C107.926 24.2667 109.44 23.6 111.493 23.6C112.88 23.6 113.993 23.9467 114.833 24.64C115.673 25.32 116.093 26.14 116.093 27.1C116.093 27.9267 115.76 28.5933 115.093 29.1C114.76 29.34 114.426 29.5067 114.093 29.6V29.7C114.573 29.8467 114.973 30.0333 115.293 30.26C116.093 30.8067 116.493 31.5867 116.493 32.6C116.493 33.6533 116.04 34.5533 115.133 35.3C114.24 36.0333 113.026 36.4 111.493 36.4C109.346 36.4 107.753 35.7 106.713 34.3C106.233 33.6733 105.893 32.9733 105.693 32.2ZM117.702 36L121.082 24H126.522L129.902 36H127.602L126.802 33.1H120.802L120.002 36H117.702ZM121.402 30.9H126.202L124.902 26.2H122.702L121.402 30.9ZM129.595 26.2V24H140.495V26.2H136.195V36H133.895V26.2H129.595ZM142.103 36V24H144.403V27.8H147.803C149.176 27.8 150.303 28.2 151.183 29C152.063 29.8 152.503 30.7667 152.503 31.9C152.503 33.02 152.056 33.9867 151.163 34.8C150.283 35.6 149.163 36 147.803 36H142.103ZM144.403 33.8H147.803C148.55 33.8 149.116 33.6267 149.503 33.28C149.903 32.9333 150.103 32.4733 150.103 31.9C150.103 31.3267 149.903 30.8667 149.503 30.52C149.116 30.1733 148.55 30 147.803 30H144.403V33.8Z" fill="white"/>
</svg>
