<svg width="209" height="60" viewBox="0 0 209 60" fill="none" xmlns="http://www.w3.org/2000/svg">
<rect x="1" y="1" width="207" height="57.96" rx="15" stroke="black" stroke-width="2" stroke-linejoin="round"/>
<path d="M46.4 36V22H57.9V36H55.6V24.2H48.7V36H46.4ZM61.9969 34.56C60.7302 33.3333 60.0969 31.8133 60.0969 30C60.0969 28.1867 60.7302 26.6667 61.9969 25.44C63.2635 24.2133 64.8635 23.6 66.7969 23.6C68.7302 23.6 70.3302 24.2133 71.5969 25.44C72.8635 26.6667 73.4969 28.1867 73.4969 30C73.4969 31.8133 72.8635 33.3333 71.5969 34.56C70.3302 35.7867 68.7302 36.4 66.7969 36.4C64.8635 36.4 63.2635 35.7867 61.9969 34.56ZM63.7169 27C62.9035 27.8 62.4969 28.8 62.4969 30C62.4969 31.2 62.9035 32.2 63.7169 33C64.5302 33.8 65.5569 34.2 66.7969 34.2C68.0369 34.2 69.0635 33.8 69.8769 33C70.6902 32.2 71.0969 31.2 71.0969 30C71.0969 28.8 70.6902 27.8 69.8769 27C69.0635 26.2 68.0369 25.8 66.7969 25.8C65.5569 25.8 64.5302 26.2 63.7169 27ZM74.0063 38.4V33.8H75.4063L78.0063 24H83.5063L86.1063 33.8H87.5063V38.4H85.3063V36H76.2063V38.4H74.0063ZM77.7063 33.8H83.8063L81.7063 25.9H79.8063L77.7063 33.8ZM88.9977 36V24H94.8977C96.2577 24 97.3777 24.4067 98.2577 25.22C99.151 26.02 99.5977 26.98 99.5977 28.1C99.5977 29.2333 99.1577 30.2 98.2777 31C97.3977 31.8 96.271 32.2 94.8977 32.2H91.2977V36H88.9977ZM91.2977 30H94.8977C95.6443 30 96.211 29.8267 96.5977 29.48C96.9977 29.1333 97.1977 28.6733 97.1977 28.1C97.1977 27.5267 96.9977 27.0667 96.5977 26.72C96.211 26.3733 95.6443 26.2 94.8977 26.2H91.2977V30ZM102.895 34.56C101.629 33.3333 100.995 31.8133 100.995 30C100.995 28.1867 101.629 26.6667 102.895 25.44C104.162 24.2133 105.762 23.6 107.695 23.6C109.629 23.6 111.229 24.2133 112.495 25.44C113.762 26.6667 114.395 28.1867 114.395 30C114.395 31.8133 113.762 33.3333 112.495 34.56C111.229 35.7867 109.629 36.4 107.695 36.4C105.762 36.4 104.162 35.7867 102.895 34.56ZM104.615 27C103.802 27.8 103.395 28.8 103.395 30C103.395 31.2 103.802 32.2 104.615 33C105.429 33.8 106.455 34.2 107.695 34.2C108.935 34.2 109.962 33.8 110.775 33C111.589 32.2 111.995 31.2 111.995 30C111.995 28.8 111.589 27.8 110.775 27C109.962 26.2 108.935 25.8 107.695 25.8C106.455 25.8 105.429 26.2 104.615 27ZM116.595 36V24H125.995V26.2H118.895V28.4H122.595C123.915 28.4 124.975 28.7667 125.775 29.5C126.589 30.22 126.995 31.12 126.995 32.2C126.995 33.28 126.589 34.1867 125.775 34.92C124.975 35.64 123.915 36 122.595 36H116.595ZM118.895 33.8H122.595C123.222 33.8 123.709 33.6533 124.055 33.36C124.415 33.0533 124.595 32.6667 124.595 32.2C124.595 31.7333 124.415 31.3533 124.055 31.06C123.709 30.7533 123.222 30.6 122.595 30.6H118.895V33.8ZM129.291 36V24H131.591V28.8H137.691V24H139.991V36H137.691V31H131.591V36H129.291ZM142.787 36V24H151.787V26.2H145.087V28.8H150.587V31H145.087V33.8H151.787V36H142.787ZM153.88 36V24H162.88V26.2H156.18V28.8H161.68V31H156.18V33.8H162.88V36H153.88Z" fill="black"/>
</svg>
